<svg xmlns="http://www.w3.org/2000/svg" width="512" height="512"><rect x="0" y="0" width="512" height="512" fill="gray"/><circle stroke="white" stroke-width="8.0" cx="256.0" cy="256.0" r="256.0"/><rect transform="rotate(244.125 256.0 256.0)" x="254.0" y="8.0" width="4.0" height="51.2" fill="red"/><rect transform="rotate(45.0 256.0 256.0)" x="254.0" y="8.0" width="4.0" height="25.6" fill="white"/><rect transform="rotate(53.4375 256.0 256.0)" x="254.0" y="8.0" width="4.0" height="25.6" fill="white"/><rect transform="rotate(61.875 256.0 256.0)" x="254.0" y="8.0" width="4.0" height="25.6" fill="white"/><rect transform="rotate(70.3125 256.0 256.0)" x="254.0" y="8.0" width="4.0" height="25.6" fill="white"/><rect transform="rotate(78.75 256.0 256.0)" x="254.0" y="8.0" width="4.0" height="25.6" fill="white"/><rect transform="rotate(87.1875 256.0 256.0)" x="254.0" y="8.0" width="4.0" height="25.6" fill="white"/><rect transform="rotate(95.625 256.0 256.0)" x="254.0" y="8.0" width="4.0" height="25.6" fill="white"/><rect transform="rotate(104.0625 256.0 256.0)" x="254.0" y="8.0" width="4.0" height="25.6" fill="white"/><rect transform="rotate(112.5 256.0 256.0)" x="254.0" y="8.0" width="4.0" height="25.6" fill="white"/><rect transform="rotate(120.9375 256.0 256.0)" x="254.0" y="8.0" width="4.0" height="25.6" fill="white"/><rect transform="rotate(129.375 256.0 256.0)" x="254.0" y="8.0" width="4.0" height="25.6" fill="white"/><rect transform="rotate(137.8125 256.0 256.0)" x="254.0" y="8.0" width="4.0" height="25.6" fill="white"/><rect transform="rotate(146.25 256.0 256.0)" x="254.0" y="8.0" width="4.0" height="25.6" fill="white"/><rect transform="rotate(154.6875 256.0 256.0)" x="254.0" y="8.0" width="4.0" height="25.6" fill="white"/><rect transform="rotate(163.125 256.0 256.0)" x="254.0" y="8.0" width="4.0" height="25.6" fill="white"/><rect transform="rotate(171.5625 256.0 256.0)" x="254.0" y="8.0" width="4.0" height="25.6" fill="white"/><rect transform="rotate(180.0 256.0 256.0)" x="254.0" y="8.0" width="4.0" height="25.6" fill="white"/><rect transform="rotate(188.4375 256.0 256.0)" x="254.0" y="8.0" width="4.0" height="25.6" fill="white"/><rect transform="rotate(196.875 256.0 256.0)" x="254.0" y="8.0" width="4.0" height="25.6" fill="white"/><rect transform="rotate(205.3125 256.0 256.0)" x="254.0" y="8.0" width="4.0" height="25.6" fill="white"/><rect transform="rotate(213.75 256.0 256.0)" x="254.0" y="8.0" width="4.0" height="25.6" fill="white"/><rect transform="rotate(222.1875 256.0 256.0)" x="254.0" y="8.0" width="4.0" height="25.6" fill="white"/><rect transform="rotate(230.625 256.0 256.0)" x="254.0" y="8.0" width="4.0" height="25.6" fill="white"/><rect transform="rotate(239.0625 256.0 256.0)" x="254.0" y="8.0" width="4.0" height="25.6" fill="white"/><rect transform="rotate(247.5 256.0 256.0)" x="254.0" y="8.0" width="4.0" height="25.6" fill="white"/><rect transform="rotate(255.9375 256.0 256.0)" x="254.0" y="8.0" width="4.0" height="25.6" fill="white"/><rect transform="rotate(264.375 256.0 256.0)" x="254.0" y="8.0" width="4.0" height="25.6" fill="white"/><rect transform="rotate(272.8125 256.0 256.0)" x="254.0" y="8.0" width="4.0" height="25.6" fill="white"/><rect transform="rotate(281.25 256.0 256.0)" x="254.0" y="8.0" width="4.0" height="25.6" fill="white"/><rect transform="rotate(289.6875 256.0 256.0)" x="254.0" y="8.0" width="4.0" height="25.6" fill="white"/><rect transform="rotate(298.125 256.0 256.0)" x="254.0" y="8.0" width="4.0" height="25.6" fill="white"/><rect transform="rotate(306.5625 256.0 256.0)" x="254.0" y="8.0" width="4.0" height="25.6" fill="white"/><rect transform="rotate(315.0 256.0 256.0)" x="254.0" y="8.0" width="4.0" height="25.6" fill="white"/><rect transform="rotate(45.0 256.0 256.0)" x="252.0" y="8.0" width="8.0" height="51.2" fill="white"/><rect transform="rotate(61.875 256.0 256.0)" x="252.0" y="8.0" width="8.0" height="51.2" fill="white"/><rect transform="rotate(78.75 256.0 256.0)" x="252.0" y="8.0" width="8.0" height="51.2" fill="white"/><rect transform="rotate(95.625 256.0 256.0)" x="252.0" y="8.0" width="8.0" height="51.2" fill="white"/><rect transform="rotate(112.5 256.0 256.0)" x="252.0" y="8.0" width="8.0" height="51.2" fill="white"/><rect transform="rotate(129.375 256.0 256.0)" x="252.0" y="8.0" width="8.0" height="51.2" fill="white"/><rect transform="rotate(146.25 256.0 256.0)" x="252.0" y="8.0" width="8.0" height="51.2" fill="white"/><rect transform="rotate(163.125 256.0 256.0)" x="252.0" y="8.0" width="8.0" height="51.2" fill="white"/><rect transform="rotate(180.0 256.0 256.0)" x="252.0" y="8.0" width="8.0" height="51.2" fill="white"/><rect transform="rotate(196.875 256.0 256.0)" x="252.0" y="8.0" width="8.0" height="51.2" fill="white"/><rect transform="rotate(213.75 256.0 256.0)" x="252.0" y="8.0" width="8.0" height="51.2" fill="white"/><rect transform="rotate(230.625 256.0 256.0)" x="252.0" y="8.0" width="8.0" height="51.2" fill="white"/><rect transform="rotate(247.5 256.0 256.0)" x="252.0" y="8.0" width="8.0" height="51.2" fill="white"/><rect transform="rotate(264.375 256.0 256.0)" x="252.0" y="8.0" width="8.0" height="51.2" fill="white"/><rect transform="rotate(281.25 256.0 256.0)" x="252.0" y="8.0" width="8.0" height="51.2" fill="white"/><rect transform="rotate(298.125 256.0 256.0)" x="252.0" y="8.0" width="8.0" height="51.2" fill="white"/><rect transform="rotate(315.0 256.0 256.0)" x="252.0" y="8.0" width="8.0" height="51.2" fill="white"/></svg>