<svg xmlns="http://www.w3.org/2000/svg" width="512" height="512"><defs ><mask id="pressureRect"><rect x="0" y="0" width="512" height="512" fill="white"/><rect x="384.0" y="240.0" width="64.0" height="48.0" fill="black"/></mask></defs><rect mask="url(#pressureRect)" x="0" y="0" width="512" height="512" fill="gray"/><circle stroke="white" stroke-width="8.0" mask="url(#pressureRect)" cx="256.0" cy="256.0" r="252.0" fill="black"/><rect stroke="white" stroke-width="4.0" mask="url(#pressureRect)" x="384.0" y="240.0" width="64.0" height="48.0"/><rect x="464.0" y="260.0" width="32.0" height="8.0" fill="white"/><polygon points="464.0 260.0 464.0 268.0 448.0 264.0" fill="white"/><rect transform="rotate(0.0 256.0 256.0)" x="254.0" y="24.0" width="4.0" height="16.0" fill="white"/><rect transform="rotate(7.2 256.0 256.0)" x="254.0" y="24.0" width="4.0" height="16.0" fill="white"/><rect transform="rotate(14.4 256.0 256.0)" x="254.0" y="24.0" width="4.0" height="16.0" fill="white"/><rect transform="rotate(21.6 256.0 256.0)" x="254.0" y="24.0" width="4.0" height="16.0" fill="white"/><rect transform="rotate(28.8 256.0 256.0)" x="254.0" y="24.0" width="4.0" height="16.0" fill="white"/><rect transform="rotate(36.0 256.0 256.0)" x="254.0" y="24.0" width="4.0" height="16.0" fill="white"/><rect transform="rotate(43.2 256.0 256.0)" x="254.0" y="24.0" width="4.0" height="16.0" fill="white"/><rect transform="rotate(50.4 256.0 256.0)" x="254.0" y="24.0" width="4.0" height="16.0" fill="white"/><rect transform="rotate(57.6 256.0 256.0)" x="254.0" y="24.0" width="4.0" height="16.0" fill="white"/><rect transform="rotate(64.8 256.0 256.0)" x="254.0" y="24.0" width="4.0" height="16.0" fill="white"/><rect transform="rotate(72.0 256.0 256.0)" x="254.0" y="24.0" width="4.0" height="16.0" fill="white"/><rect transform="rotate(79.2 256.0 256.0)" x="254.0" y="24.0" width="4.0" height="16.0" fill="white"/><rect transform="rotate(86.4 256.0 256.0)" x="254.0" y="24.0" width="4.0" height="16.0" fill="white"/><rect transform="rotate(93.60000000000001 256.0 256.0)" x="254.0" y="24.0" width="4.0" height="16.0" fill="white"/><rect transform="rotate(100.8 256.0 256.0)" x="254.0" y="24.0" width="4.0" height="16.0" fill="white"/><rect transform="rotate(108.0 256.0 256.0)" x="254.0" y="24.0" width="4.0" height="16.0" fill="white"/><rect transform="rotate(115.2 256.0 256.0)" x="254.0" y="24.0" width="4.0" height="16.0" fill="white"/><rect transform="rotate(122.4 256.0 256.0)" x="254.0" y="24.0" width="4.0" height="16.0" fill="white"/><rect transform="rotate(129.6 256.0 256.0)" x="254.0" y="24.0" width="4.0" height="16.0" fill="white"/><rect transform="rotate(136.8 256.0 256.0)" x="254.0" y="24.0" width="4.0" height="16.0" fill="white"/><rect transform="rotate(144.0 256.0 256.0)" x="254.0" y="24.0" width="4.0" height="16.0" fill="white"/><rect transform="rotate(151.20000000000002 256.0 256.0)" x="254.0" y="24.0" width="4.0" height="16.0" fill="white"/><rect transform="rotate(158.4 256.0 256.0)" x="254.0" y="24.0" width="4.0" height="16.0" fill="white"/><rect transform="rotate(165.6 256.0 256.0)" x="254.0" y="24.0" width="4.0" height="16.0" fill="white"/><rect transform="rotate(172.8 256.0 256.0)" x="254.0" y="24.0" width="4.0" height="16.0" fill="white"/><rect transform="rotate(180.0 256.0 256.0)" x="254.0" y="24.0" width="4.0" height="16.0" fill="white"/><rect transform="rotate(187.20000000000002 256.0 256.0)" x="254.0" y="24.0" width="4.0" height="16.0" fill="white"/><rect transform="rotate(194.4 256.0 256.0)" x="254.0" y="24.0" width="4.0" height="16.0" fill="white"/><rect transform="rotate(201.6 256.0 256.0)" x="254.0" y="24.0" width="4.0" height="16.0" fill="white"/><rect transform="rotate(208.8 256.0 256.0)" x="254.0" y="24.0" width="4.0" height="16.0" fill="white"/><rect transform="rotate(216.0 256.0 256.0)" x="254.0" y="24.0" width="4.0" height="16.0" fill="white"/><rect transform="rotate(223.20000000000002 256.0 256.0)" x="254.0" y="24.0" width="4.0" height="16.0" fill="white"/><rect transform="rotate(230.4 256.0 256.0)" x="254.0" y="24.0" width="4.0" height="16.0" fill="white"/><rect transform="rotate(237.6 256.0 256.0)" x="254.0" y="24.0" width="4.0" height="16.0" fill="white"/><rect transform="rotate(244.8 256.0 256.0)" x="254.0" y="24.0" width="4.0" height="16.0" fill="white"/><rect transform="rotate(252.0 256.0 256.0)" x="254.0" y="24.0" width="4.0" height="16.0" fill="white"/><rect transform="rotate(259.2 256.0 256.0)" x="254.0" y="24.0" width="4.0" height="16.0" fill="white"/><rect transform="rotate(266.40000000000003 256.0 256.0)" x="254.0" y="24.0" width="4.0" height="16.0" fill="white"/><rect transform="rotate(273.6 256.0 256.0)" x="254.0" y="24.0" width="4.0" height="16.0" fill="white"/><rect transform="rotate(280.8 256.0 256.0)" x="254.0" y="24.0" width="4.0" height="16.0" fill="white"/><rect transform="rotate(288.0 256.0 256.0)" x="254.0" y="24.0" width="4.0" height="16.0" fill="white"/><rect transform="rotate(295.2 256.0 256.0)" x="254.0" y="24.0" width="4.0" height="16.0" fill="white"/><rect transform="rotate(302.40000000000003 256.0 256.0)" x="254.0" y="24.0" width="4.0" height="16.0" fill="white"/><rect transform="rotate(309.6 256.0 256.0)" x="254.0" y="24.0" width="4.0" height="16.0" fill="white"/><rect transform="rotate(316.8 256.0 256.0)" x="254.0" y="24.0" width="4.0" height="16.0" fill="white"/><rect transform="rotate(324.0 256.0 256.0)" x="254.0" y="24.0" width="4.0" height="16.0" fill="white"/><rect transform="rotate(331.2 256.0 256.0)" x="254.0" y="24.0" width="4.0" height="16.0" fill="white"/><rect transform="rotate(338.40000000000003 256.0 256.0)" x="254.0" y="24.0" width="4.0" height="16.0" fill="white"/><rect transform="rotate(345.6 256.0 256.0)" x="254.0" y="24.0" width="4.0" height="16.0" fill="white"/><rect transform="rotate(352.8 256.0 256.0)" x="254.0" y="24.0" width="4.0" height="16.0" fill="white"/><rect transform="rotate(360.0 256.0 256.0)" x="254.0" y="24.0" width="4.0" height="16.0" fill="white"/><rect transform="rotate(0.0 256.0 256.0)" x="252.0" y="16.0" width="8.0" height="32.0" fill="white"/><rect transform="rotate(36.0 256.0 256.0)" x="252.0" y="16.0" width="8.0" height="32.0" fill="white"/><rect transform="rotate(72.0 256.0 256.0)" x="252.0" y="16.0" width="8.0" height="32.0" fill="white"/><rect transform="rotate(108.0 256.0 256.0)" x="252.0" y="16.0" width="8.0" height="32.0" fill="white"/><rect transform="rotate(144.0 256.0 256.0)" x="252.0" y="16.0" width="8.0" height="32.0" fill="white"/><rect transform="rotate(180.0 256.0 256.0)" x="252.0" y="16.0" width="8.0" height="32.0" fill="white"/><rect transform="rotate(216.0 256.0 256.0)" x="252.0" y="16.0" width="8.0" height="32.0" fill="white"/><rect transform="rotate(252.0 256.0 256.0)" x="252.0" y="16.0" width="8.0" height="32.0" fill="white"/><rect transform="rotate(288.0 256.0 256.0)" x="252.0" y="16.0" width="8.0" height="32.0" fill="white"/><rect transform="rotate(324.0 256.0 256.0)" x="252.0" y="16.0" width="8.0" height="32.0" fill="white"/><rect transform="rotate(360.0 256.0 256.0)" x="252.0" y="16.0" width="8.0" height="32.0" fill="white"/><text text-anchor="middle" fill="white" style="font-family: Arial, sans-serif; font-size: 64px;" x="256.0" y="128.0">0</text><text text-anchor="middle" fill="white" style="font-family: Arial, sans-serif; font-size: 64px;" x="350.04564036679574" y="158.5572809000084">1</text><text text-anchor="middle" fill="white" style="font-family: Arial, sans-serif; font-size: 64px;" x="408.1690426072246" y="238.5572809000084">2</text><text text-anchor="middle" fill="white" style="font-family: Arial, sans-serif; font-size: 64px;" x="408.1690426072246" y="337.44271909999156">3</text><text text-anchor="middle" fill="white" style="font-family: Arial, sans-serif; font-size: 64px;" x="350.04564036679574" y="417.44271909999156">4</text><text text-anchor="middle" fill="white" style="font-family: Arial, sans-serif; font-size: 64px;" x="256.0" y="448.0">5</text><text text-anchor="middle" fill="white" style="font-family: Arial, sans-serif; font-size: 64px;" x="161.95435963320432" y="417.44271909999156">6</text><text text-anchor="middle" fill="white" style="font-family: Arial, sans-serif; font-size: 64px;" x="103.83095739277545" y="337.4427190999916">7</text><text text-anchor="middle" fill="white" style="font-family: Arial, sans-serif; font-size: 64px;" x="103.83095739277542" y="238.55728090000844">8</text><text text-anchor="middle" fill="white" style="font-family: Arial, sans-serif; font-size: 64px;" x="161.95435963320426" y="158.55728090000844">9</text></svg>