<svg xmlns="http://www.w3.org/2000/svg" width="512" height="512"><defs ><mask id="circle"><rect x="0" y="0" width="512" height="512" fill="white"/><circle cx="256.0" cy="256.0" r="256.0" fill="black"/></mask></defs><rect mask="url(#circle)" x="0" y="0" width="512" height="512" fill="gray"/><polygon points="320.0 242.0 320.0 210.0 272.0 210.0 256.0 162.0 240.0 210.0 192.0 210.0 192.0 242.0 240.0 242.0 240.0 290.0 224.0 290.0 224.0 311.3333333333333 288.0 311.3333333333333 288.0 290.0 272.0 290.0 272.0 242.0" fill="OrangeRed"/><rect transform="rotate(0 256.0 256.0)" x="252.0" y="8.0" width="8.0" height="32.0" fill="OrangeRed"/><rect transform="rotate(45 256.0 256.0)" x="252.0" y="8.0" width="8.0" height="32.0" fill="OrangeRed"/><rect transform="rotate(90 256.0 256.0)" x="252.0" y="8.0" width="8.0" height="32.0" fill="OrangeRed"/><rect transform="rotate(135 256.0 256.0)" x="252.0" y="8.0" width="8.0" height="32.0" fill="OrangeRed"/><rect transform="rotate(180 256.0 256.0)" x="252.0" y="8.0" width="8.0" height="32.0" fill="OrangeRed"/><rect transform="rotate(225 256.0 256.0)" x="252.0" y="8.0" width="8.0" height="32.0" fill="OrangeRed"/><rect transform="rotate(270 256.0 256.0)" x="252.0" y="8.0" width="8.0" height="32.0" fill="OrangeRed"/><rect transform="rotate(315 256.0 256.0)" x="252.0" y="8.0" width="8.0" height="32.0" fill="OrangeRed"/></svg>