<svg xmlns="http://www.w3.org/2000/svg" width="64.0" height="512"><rect x="0" y="0" width="64.0" height="512"/><rect x="52.0" y="0.0" width="8.0" height="1.0" fill="white"/><rect x="52.0" y="3.4133333333333336" width="8.0" height="1.0" fill="white"/><rect x="52.0" y="6.826666666666667" width="8.0" height="1.0" fill="white"/><rect x="52.0" y="10.24" width="8.0" height="1.0" fill="white"/><rect x="52.0" y="13.653333333333334" width="8.0" height="1.0" fill="white"/><rect x="52.0" y="17.066666666666666" width="8.0" height="1.0" fill="white"/><rect x="52.0" y="20.48" width="8.0" height="1.0" fill="white"/><rect x="52.0" y="23.893333333333334" width="8.0" height="1.0" fill="white"/><rect x="52.0" y="27.30666666666667" width="8.0" height="1.0" fill="white"/><rect x="52.0" y="30.72" width="8.0" height="1.0" fill="white"/><rect x="52.0" y="34.13333333333333" width="8.0" height="1.0" fill="white"/><rect x="52.0" y="37.54666666666667" width="8.0" height="1.0" fill="white"/><rect x="52.0" y="40.96" width="8.0" height="1.0" fill="white"/><rect x="52.0" y="44.373333333333335" width="8.0" height="1.0" fill="white"/><rect x="52.0" y="47.78666666666667" width="8.0" height="1.0" fill="white"/><rect x="52.0" y="51.2" width="8.0" height="1.0" fill="white"/><rect x="52.0" y="54.61333333333334" width="8.0" height="1.0" fill="white"/><rect x="52.0" y="58.026666666666664" width="8.0" height="1.0" fill="white"/><rect x="52.0" y="61.44" width="8.0" height="1.0" fill="white"/><rect x="52.0" y="64.85333333333334" width="8.0" height="1.0" fill="white"/><rect x="52.0" y="68.26666666666667" width="8.0" height="1.0" fill="white"/><rect x="52.0" y="71.68" width="8.0" height="1.0" fill="white"/><rect x="52.0" y="75.09333333333333" width="8.0" height="1.0" fill="white"/><rect x="52.0" y="78.50666666666666" width="8.0" height="1.0" fill="white"/><rect x="52.0" y="81.92" width="8.0" height="1.0" fill="white"/><rect x="52.0" y="85.33333333333333" width="8.0" height="1.0" fill="white"/><rect x="52.0" y="88.74666666666667" width="8.0" height="1.0" fill="white"/><rect x="52.0" y="92.16" width="8.0" height="1.0" fill="white"/><rect x="52.0" y="95.57333333333334" width="8.0" height="1.0" fill="white"/><rect x="52.0" y="98.98666666666666" width="8.0" height="1.0" fill="white"/><rect x="52.0" y="102.4" width="8.0" height="1.0" fill="white"/><rect x="52.0" y="105.81333333333333" width="8.0" height="1.0" fill="white"/><rect x="52.0" y="109.22666666666667" width="8.0" height="1.0" fill="white"/><rect x="52.0" y="112.64" width="8.0" height="1.0" fill="white"/><rect x="52.0" y="116.05333333333333" width="8.0" height="1.0" fill="white"/><rect x="52.0" y="119.46666666666667" width="8.0" height="1.0" fill="white"/><rect x="52.0" y="122.88" width="8.0" height="1.0" fill="white"/><rect x="52.0" y="126.29333333333334" width="8.0" height="1.0" fill="white"/><rect x="52.0" y="129.70666666666668" width="8.0" height="1.0" fill="white"/><rect x="52.0" y="133.12" width="8.0" height="1.0" fill="white"/><rect x="52.0" y="136.53333333333333" width="8.0" height="1.0" fill="white"/><rect x="52.0" y="139.94666666666666" width="8.0" height="1.0" fill="white"/><rect x="52.0" y="143.36" width="8.0" height="1.0" fill="white"/><rect x="52.0" y="146.77333333333334" width="8.0" height="1.0" fill="white"/><rect x="52.0" y="150.18666666666667" width="8.0" height="1.0" fill="white"/><rect x="52.0" y="153.6" width="8.0" height="1.0" fill="white"/><rect x="52.0" y="157.01333333333332" width="8.0" height="1.0" fill="white"/><rect x="52.0" y="160.42666666666668" width="8.0" height="1.0" fill="white"/><rect x="52.0" y="163.84" width="8.0" height="1.0" fill="white"/><rect x="52.0" y="167.25333333333333" width="8.0" height="1.0" fill="white"/><rect x="52.0" y="170.66666666666666" width="8.0" height="1.0" fill="white"/><rect x="52.0" y="174.08" width="8.0" height="1.0" fill="white"/><rect x="52.0" y="177.49333333333334" width="8.0" height="1.0" fill="white"/><rect x="52.0" y="180.90666666666667" width="8.0" height="1.0" fill="white"/><rect x="52.0" y="184.32" width="8.0" height="1.0" fill="white"/><rect x="52.0" y="187.73333333333332" width="8.0" height="1.0" fill="white"/><rect x="52.0" y="191.14666666666668" width="8.0" height="1.0" fill="white"/><rect x="52.0" y="194.56" width="8.0" height="1.0" fill="white"/><rect x="52.0" y="197.97333333333333" width="8.0" height="1.0" fill="white"/><rect x="52.0" y="201.38666666666666" width="8.0" height="1.0" fill="white"/><rect x="52.0" y="204.8" width="8.0" height="1.0" fill="white"/><rect x="52.0" y="208.21333333333334" width="8.0" height="1.0" fill="white"/><rect x="52.0" y="211.62666666666667" width="8.0" height="1.0" fill="white"/><rect x="52.0" y="215.04" width="8.0" height="1.0" fill="white"/><rect x="52.0" y="218.45333333333335" width="8.0" height="1.0" fill="white"/><rect x="52.0" y="221.86666666666667" width="8.0" height="1.0" fill="white"/><rect x="52.0" y="225.28" width="8.0" height="1.0" fill="white"/><rect x="52.0" y="228.69333333333333" width="8.0" height="1.0" fill="white"/><rect x="52.0" y="232.10666666666665" width="8.0" height="1.0" fill="white"/><rect x="52.0" y="235.52" width="8.0" height="1.0" fill="white"/><rect x="52.0" y="238.93333333333334" width="8.0" height="1.0" fill="white"/><rect x="52.0" y="242.34666666666666" width="8.0" height="1.0" fill="white"/><rect x="52.0" y="245.76" width="8.0" height="1.0" fill="white"/><rect x="52.0" y="249.17333333333335" width="8.0" height="1.0" fill="white"/><rect x="52.0" y="252.58666666666667" width="8.0" height="1.0" fill="white"/><rect x="52.0" y="256.0" width="8.0" height="1.0" fill="white"/><rect x="52.0" y="259.41333333333336" width="8.0" height="1.0" fill="white"/><rect x="52.0" y="262.82666666666665" width="8.0" height="1.0" fill="white"/><rect x="52.0" y="266.24" width="8.0" height="1.0" fill="white"/><rect x="52.0" y="269.6533333333333" width="8.0" height="1.0" fill="white"/><rect x="52.0" y="273.06666666666666" width="8.0" height="1.0" fill="white"/><rect x="52.0" y="276.48" width="8.0" height="1.0" fill="white"/><rect x="52.0" y="279.8933333333333" width="8.0" height="1.0" fill="white"/><rect x="52.0" y="283.3066666666667" width="8.0" height="1.0" fill="white"/><rect x="52.0" y="286.72" width="8.0" height="1.0" fill="white"/><rect x="52.0" y="290.1333333333333" width="8.0" height="1.0" fill="white"/><rect x="52.0" y="293.5466666666667" width="8.0" height="1.0" fill="white"/><rect x="52.0" y="296.96" width="8.0" height="1.0" fill="white"/><rect x="52.0" y="300.37333333333333" width="8.0" height="1.0" fill="white"/><rect x="52.0" y="303.7866666666667" width="8.0" height="1.0" fill="white"/><rect x="52.0" y="307.2" width="8.0" height="1.0" fill="white"/><rect x="52.0" y="310.61333333333334" width="8.0" height="1.0" fill="white"/><rect x="52.0" y="314.02666666666664" width="8.0" height="1.0" fill="white"/><rect x="52.0" y="317.44" width="8.0" height="1.0" fill="white"/><rect x="52.0" y="320.85333333333335" width="8.0" height="1.0" fill="white"/><rect x="52.0" y="324.26666666666665" width="8.0" height="1.0" fill="white"/><rect x="52.0" y="327.68" width="8.0" height="1.0" fill="white"/><rect x="52.0" y="331.0933333333333" width="8.0" height="1.0" fill="white"/><rect x="52.0" y="334.50666666666666" width="8.0" height="1.0" fill="white"/><rect x="52.0" y="337.92" width="8.0" height="1.0" fill="white"/><rect x="52.0" y="341.3333333333333" width="8.0" height="1.0" fill="white"/><rect x="52.0" y="344.74666666666667" width="8.0" height="1.0" fill="white"/><rect x="52.0" y="348.16" width="8.0" height="1.0" fill="white"/><rect x="52.0" y="351.5733333333333" width="8.0" height="1.0" fill="white"/><rect x="52.0" y="354.9866666666667" width="8.0" height="1.0" fill="white"/><rect x="52.0" y="358.4" width="8.0" height="1.0" fill="white"/><rect x="52.0" y="361.81333333333333" width="8.0" height="1.0" fill="white"/><rect x="52.0" y="365.2266666666667" width="8.0" height="1.0" fill="white"/><rect x="52.0" y="368.64" width="8.0" height="1.0" fill="white"/><rect x="52.0" y="372.05333333333334" width="8.0" height="1.0" fill="white"/><rect x="52.0" y="375.46666666666664" width="8.0" height="1.0" fill="white"/><rect x="52.0" y="378.88" width="8.0" height="1.0" fill="white"/><rect x="52.0" y="382.29333333333335" width="8.0" height="1.0" fill="white"/><rect x="52.0" y="385.70666666666665" width="8.0" height="1.0" fill="white"/><rect x="52.0" y="389.12" width="8.0" height="1.0" fill="white"/><rect x="52.0" y="392.53333333333336" width="8.0" height="1.0" fill="white"/><rect x="52.0" y="395.94666666666666" width="8.0" height="1.0" fill="white"/><rect x="52.0" y="399.36" width="8.0" height="1.0" fill="white"/><rect x="52.0" y="402.7733333333333" width="8.0" height="1.0" fill="white"/><rect x="52.0" y="406.18666666666667" width="8.0" height="1.0" fill="white"/><rect x="52.0" y="409.6" width="8.0" height="1.0" fill="white"/><rect x="52.0" y="413.0133333333333" width="8.0" height="1.0" fill="white"/><rect x="52.0" y="416.4266666666667" width="8.0" height="1.0" fill="white"/><rect x="52.0" y="419.84" width="8.0" height="1.0" fill="white"/><rect x="52.0" y="423.25333333333333" width="8.0" height="1.0" fill="white"/><rect x="52.0" y="426.6666666666667" width="8.0" height="1.0" fill="white"/><rect x="52.0" y="430.08" width="8.0" height="1.0" fill="white"/><rect x="52.0" y="433.49333333333334" width="8.0" height="1.0" fill="white"/><rect x="52.0" y="436.9066666666667" width="8.0" height="1.0" fill="white"/><rect x="52.0" y="440.32" width="8.0" height="1.0" fill="white"/><rect x="52.0" y="443.73333333333335" width="8.0" height="1.0" fill="white"/><rect x="52.0" y="447.14666666666665" width="8.0" height="1.0" fill="white"/><rect x="52.0" y="450.56" width="8.0" height="1.0" fill="white"/><rect x="52.0" y="453.97333333333336" width="8.0" height="1.0" fill="white"/><rect x="52.0" y="457.38666666666666" width="8.0" height="1.0" fill="white"/><rect x="52.0" y="460.8" width="8.0" height="1.0" fill="white"/><rect x="52.0" y="464.2133333333333" width="8.0" height="1.0" fill="white"/><rect x="52.0" y="467.62666666666667" width="8.0" height="1.0" fill="white"/><rect x="52.0" y="471.04" width="8.0" height="1.0" fill="white"/><rect x="52.0" y="474.4533333333333" width="8.0" height="1.0" fill="white"/><rect x="52.0" y="477.8666666666667" width="8.0" height="1.0" fill="white"/><rect x="52.0" y="481.28" width="8.0" height="1.0" fill="white"/><rect x="52.0" y="484.6933333333333" width="8.0" height="1.0" fill="white"/><rect x="52.0" y="488.1066666666667" width="8.0" height="1.0" fill="white"/><rect x="52.0" y="491.52" width="8.0" height="1.0" fill="white"/><rect x="52.0" y="494.93333333333334" width="8.0" height="1.0" fill="white"/><rect x="52.0" y="498.3466666666667" width="8.0" height="1.0" fill="white"/><rect x="52.0" y="501.76" width="8.0" height="1.0" fill="white"/><rect x="52.0" y="505.17333333333335" width="8.0" height="1.0" fill="white"/><rect x="52.0" y="508.58666666666664" width="8.0" height="1.0" fill="white"/><rect x="44.0" y="0.0" width="16.0" height="2.0" fill="white"/><rect x="44.0" y="17.066666666666666" width="16.0" height="2.0" fill="white"/><rect x="44.0" y="34.13333333333333" width="16.0" height="2.0" fill="white"/><rect x="44.0" y="51.2" width="16.0" height="2.0" fill="white"/><rect x="44.0" y="68.26666666666667" width="16.0" height="2.0" fill="white"/><rect x="44.0" y="85.33333333333333" width="16.0" height="2.0" fill="white"/><rect x="44.0" y="102.4" width="16.0" height="2.0" fill="white"/><rect x="44.0" y="119.46666666666667" width="16.0" height="2.0" fill="white"/><rect x="44.0" y="136.53333333333333" width="16.0" height="2.0" fill="white"/><rect x="44.0" y="153.6" width="16.0" height="2.0" fill="white"/><rect x="44.0" y="170.66666666666666" width="16.0" height="2.0" fill="white"/><rect x="44.0" y="187.73333333333332" width="16.0" height="2.0" fill="white"/><rect x="44.0" y="204.8" width="16.0" height="2.0" fill="white"/><rect x="44.0" y="221.86666666666667" width="16.0" height="2.0" fill="white"/><rect x="44.0" y="238.93333333333334" width="16.0" height="2.0" fill="white"/><rect x="44.0" y="256.0" width="16.0" height="2.0" fill="white"/><rect x="44.0" y="273.06666666666666" width="16.0" height="2.0" fill="white"/><rect x="44.0" y="290.1333333333333" width="16.0" height="2.0" fill="white"/><rect x="44.0" y="307.2" width="16.0" height="2.0" fill="white"/><rect x="44.0" y="324.26666666666665" width="16.0" height="2.0" fill="white"/><rect x="44.0" y="341.3333333333333" width="16.0" height="2.0" fill="white"/><rect x="44.0" y="358.4" width="16.0" height="2.0" fill="white"/><rect x="44.0" y="375.46666666666664" width="16.0" height="2.0" fill="white"/><rect x="44.0" y="392.53333333333336" width="16.0" height="2.0" fill="white"/><rect x="44.0" y="409.6" width="16.0" height="2.0" fill="white"/><rect x="44.0" y="426.6666666666667" width="16.0" height="2.0" fill="white"/><rect x="44.0" y="443.73333333333335" width="16.0" height="2.0" fill="white"/><rect x="44.0" y="460.8" width="16.0" height="2.0" fill="white"/><rect x="44.0" y="477.8666666666667" width="16.0" height="2.0" fill="white"/><rect x="44.0" y="494.93333333333334" width="16.0" height="2.0" fill="white"/><text fill="white" style="font-size: 16px ;" x="4.0" y="7.0">925</text><text fill="white" style="font-size: 16px ;" x="4.0" y="24.066666666666666">930</text><text fill="white" style="font-size: 16px ;" x="4.0" y="41.13333333333333">935</text><text fill="white" style="font-size: 16px ;" x="4.0" y="58.2">940</text><text fill="white" style="font-size: 16px ;" x="4.0" y="75.26666666666667">945</text><text fill="white" style="font-size: 16px ;" x="4.0" y="92.33333333333333">950</text><text fill="white" style="font-size: 16px ;" x="4.0" y="109.4">955</text><text fill="white" style="font-size: 16px ;" x="4.0" y="126.46666666666667">960</text><text fill="white" style="font-size: 16px ;" x="4.0" y="143.53333333333333">965</text><text fill="white" style="font-size: 16px ;" x="4.0" y="160.6">970</text><text fill="white" style="font-size: 16px ;" x="4.0" y="177.66666666666666">975</text><text fill="white" style="font-size: 16px ;" x="4.0" y="194.73333333333332">980</text><text fill="white" style="font-size: 16px ;" x="4.0" y="211.8">985</text><text fill="white" style="font-size: 16px ;" x="4.0" y="228.86666666666667">990</text><text fill="white" style="font-size: 16px ;" x="4.0" y="245.93333333333334">995</text><text fill="white" style="font-size: 16px ;" x="4.0" y="263.0">1000</text><text fill="white" style="font-size: 16px ;" x="4.0" y="280.06666666666666">1005</text><text fill="white" style="font-size: 16px ;" x="4.0" y="297.1333333333333">1010</text><text fill="white" style="font-size: 16px ;" x="4.0" y="314.2">1015</text><text fill="white" style="font-size: 16px ;" x="4.0" y="331.26666666666665">1020</text><text fill="white" style="font-size: 16px ;" x="4.0" y="348.3333333333333">1025</text><text fill="white" style="font-size: 16px ;" x="4.0" y="365.4">1030</text><text fill="white" style="font-size: 16px ;" x="4.0" y="382.46666666666664">1035</text><text fill="white" style="font-size: 16px ;" x="4.0" y="399.53333333333336">1040</text><text fill="white" style="font-size: 16px ;" x="4.0" y="416.6">1045</text><text fill="white" style="font-size: 16px ;" x="4.0" y="433.6666666666667">1050</text><text fill="white" style="font-size: 16px ;" x="4.0" y="450.73333333333335">1055</text><text fill="white" style="font-size: 16px ;" x="4.0" y="467.8">1060</text><text fill="white" style="font-size: 16px ;" x="4.0" y="484.8666666666667">1065</text><text fill="white" style="font-size: 16px ;" x="4.0" y="501.93333333333334">1070</text></svg>